<svg xmlns="http://www.w3.org/2000/svg" width="218.2" height="38.3" viewBox="1 53.7 218.2 38.3" enable-background="new 1 53.7 218.2 38.3"><path fill="#fff" d="M37.6 71.2c0 5.5 4 10.1 9.8 10.1v7c-5.3 0-9.9-2.2-13-5.7l2.2 5.2h-7.9l-2.7-6.8h-13.5l-2.6 6.7h-7.8l2.9-6.7c7.5-3.4 16-6.2 25.1-8.4v-1.1c0-9.3 7.2-16.8 17.3-16.8v6.6c-5.8 0-9.8 4.4-9.8 9.9zm-8.6-1.2c-2.1.3-4.4.6-6.8 1l-2.9-7.6-3.4 8.7c-2.6.5-5.2 1-7.8 1.6l7.9-18.7h6.6l6.4 15z"/><g fill="#fff"><path d="M72 66.7l1.4-1.7c1.3 1.1 2.6 1.7 4.2 1.7 1.5 0 2.4-.7 2.4-1.7s-.5-1.5-3-2c-2.8-.7-4.5-1.5-4.5-4 0-2.3 1.9-3.9 4.6-3.9 2 0 3.5.6 4.9 1.7l-1.3 1.8c-1.2-.9-2.4-1.4-3.6-1.4-1.4 0-2.2.7-2.2 1.6 0 1 .6 1.5 3.2 2.1 2.8.7 4.3 1.7 4.3 3.9 0 2.5-2 4-4.8 4-2.1 0-4-.7-5.6-2.1zM84.2 63.6c0-2.9 2.2-5.3 5.2-5.3 1.9 0 3.1.7 4 1.7l-1.4 1.5c-.7-.7-1.5-1.3-2.6-1.3-1.7 0-2.9 1.5-2.9 3.2 0 1.8 1.2 3.2 3 3.2 1.1 0 1.9-.5 2.6-1.3l1.4 1.4c-1 1.1-2.2 1.9-4.1 1.9-2.9.2-5.2-2.1-5.2-5zM95.6 54.7h2.3v5.4c.6-1 1.6-1.8 3.2-1.8 2.3 0 3.6 1.5 3.6 3.9v6.4h-2.3v-5.7c0-1.6-.8-2.5-2.2-2.5-1.3 0-2.3.9-2.3 2.5v5.7h-2.3v-13.9zM106.9 63.6c0-2.9 2.3-5.3 5.4-5.3s5.4 2.4 5.4 5.2c0 2.9-2.3 5.3-5.4 5.3-3.2 0-5.4-2.3-5.4-5.2zm8.4 0c0-1.8-1.3-3.3-3.1-3.3-1.9 0-3 1.5-3 3.2 0 1.8 1.3 3.2 3.1 3.2 1.8.1 3-1.3 3-3.1zM119.4 63.6c0-2.9 2.3-5.3 5.4-5.3s5.4 2.4 5.4 5.2c0 2.9-2.3 5.3-5.4 5.3s-5.4-2.3-5.4-5.2zm8.4 0c0-1.8-1.3-3.3-3.1-3.3-1.9 0-3 1.5-3 3.2 0 1.8 1.3 3.2 3.1 3.2 1.9.1 3-1.3 3-3.1zM132.6 54.7h2.3v14h-2.3v-14zM143.1 63.6c0-2.9 2.3-5.3 5.4-5.3 3.1 0 5.4 2.4 5.4 5.2 0 2.9-2.3 5.3-5.4 5.3-3.1 0-5.4-2.3-5.4-5.2zm8.4 0c0-1.8-1.3-3.3-3.1-3.3-1.9 0-3 1.5-3 3.2 0 1.8 1.3 3.2 3.1 3.2 1.8.1 3-1.3 3-3.1zM156.4 60.5h-1.3v-1.9h1.3v-.7c0-1.1.3-2 .8-2.5s1.3-.8 2.3-.8c.8 0 1.4.1 1.9.3v2c-.5-.2-.9-.2-1.4-.2-.9 0-1.3.5-1.3 1.5v.6h2.7v1.9h-2.6v8.1h-2.3l-.1-8.3zM72.9 74.4h2.5l4.1 6.3 4.1-6.3h2.4v13.3h-2.4v-9.6l-4.2 6.3h-.1l-4.2-6.3v9.6h-2.3l.1-13.3zM88.7 82.7c0-2.9 2-5.3 4.9-5.3 3.2 0 4.8 2.5 4.8 5.4v.7h-7.4c.2 1.6 1.4 2.6 2.9 2.6 1.1 0 1.9-.4 2.7-1.2l1.4 1.2c-1 1.1-2.3 1.9-4.1 1.9-2.9 0-5.2-2.1-5.2-5.3zm7.5-.7c-.2-1.5-1-2.7-2.6-2.7-1.4 0-2.4 1.1-2.6 2.7h5.2zM100.3 82.7c0-3.4 2.3-5.3 4.7-5.3 1.7 0 2.7.8 3.4 1.8v-5.4h2.3v14h-2.3v-1.7c-.7 1.1-1.8 1.9-3.4 1.9-2.4 0-4.7-1.9-4.7-5.3zm8.2 0c0-2-1.4-3.3-2.9-3.3-1.6 0-2.9 1.2-2.9 3.2s1.3 3.2 2.9 3.2c1.5.1 2.9-1.2 2.9-3.1zM113.6 73.9h2.5v2.2h-2.5v-2.2zm.1 3.7h2.3v10.1h-2.3v-10.1zM125.1 87.7v-1.2c-.7.8-1.7 1.5-3.3 1.5-1.9 0-3.6-1.1-3.6-3.1 0-2.2 1.7-3.3 4.1-3.3 1.2 0 2 .2 2.8.4v-.3c0-1.4-.9-2.2-2.5-2.2-1.1 0-2 .2-2.9.6l-.6-1.9c1.1-.5 2.2-.8 3.8-.8 3 0 4.4 1.6 4.4 4.3v6h-2.2zm.1-4.2c-.6-.2-1.4-.4-2.3-.4-1.5 0-2.3.6-2.3 1.6s.9 1.5 2 1.5c1.5 0 2.7-.9 2.7-2.1l-.1-.6zM143.7 86.2c-1.1 1.1-2.5 1.7-4.1 1.7-2.5 0-4.4-1.5-4.4-3.8 0-1.7 1-3 2.8-3.7-.8-1-1.1-1.8-1.1-2.8 0-1.8 1.5-3.4 3.8-3.4 2.1 0 3.6 1.4 3.6 3.2 0 1.8-1.2 2.8-2.9 3.5l2.3 2.3c.5-.8 1-1.6 1.4-2.6l1.8.9c-.5 1.1-1.1 2.1-1.8 3.1l2.1 2.1-1.7 1.2-1.8-1.7zm-1.4-1.4l-3-3c-1.2.5-1.8 1.4-1.8 2.2 0 1.1.9 2 2.2 2 1 0 1.9-.5 2.6-1.2zm0-7.3c0-.9-.6-1.5-1.5-1.5-1 0-1.6.7-1.6 1.6 0 .7.3 1.2 1 2 1.3-.5 2.1-1.1 2.1-2.1zM155.2 74.4h5c4.2 0 7.1 2.9 7.1 6.7 0 3.8-2.9 6.7-7.1 6.7h-5v-13.4zm5 11.2c2.8 0 4.6-1.9 4.6-4.5s-1.8-4.5-4.6-4.5h-2.6v9.1l2.6-.1zM169.4 82.7c0-2.9 2-5.3 4.9-5.3 3.2 0 4.8 2.5 4.8 5.4v.7h-7.4c.2 1.6 1.4 2.6 2.9 2.6 1.1 0 1.9-.4 2.7-1.2l1.4 1.2c-1 1.1-2.3 1.9-4.1 1.9-3 0-5.2-2.1-5.2-5.3zm7.4-.7c-.2-1.5-1-2.7-2.6-2.7-1.4 0-2.4 1.1-2.6 2.7h5.2zM180.6 86.4l1-1.6c1.1.8 2.3 1.2 3.3 1.2s1.6-.4 1.6-1.1c0-.8-1.1-1.1-2.3-1.4-1.5-.4-3.2-1-3.2-3 0-1.9 1.6-3.1 3.6-3.1 1.3 0 2.6.4 3.7 1.1l-.9 1.6c-1-.6-2-1-2.8-1-.9 0-1.4.4-1.4 1 0 .7 1.1 1 2.3 1.4 1.5.5 3.1 1.1 3.1 2.9 0 2.1-1.6 3.2-3.7 3.2-1.5.3-3.1-.2-4.3-1.2zM190.9 73.9h2.5v2.2h-2.5v-2.2zm.1 3.7h2.3v10.1h-2.3v-10.1zM196.1 89.6l.9-1.7c1.1.7 2.2 1.1 3.6 1.1 2.1 0 3.2-1.1 3.2-3.1v-.8c-.8 1.1-1.9 1.9-3.6 1.9-2.4 0-4.6-1.8-4.6-4.7 0-3 2.2-4.7 4.6-4.7 1.7 0 2.8.8 3.5 1.7v-1.5h2.3v8c0 1.7-.4 3-1.3 3.8-.9.9-2.3 1.4-4.1 1.4-1.6-.2-3.2-.6-4.5-1.4zm7.7-7.4c0-1.7-1.4-2.8-3-2.8s-2.9 1.1-2.9 2.8c0 1.7 1.3 2.8 2.9 2.8s3-1.2 3-2.8zM209 77.6h2.3v1.6c.6-1 1.6-1.8 3.2-1.8 2.3 0 3.6 1.5 3.6 3.9v6.4h-2.3v-5.7c0-1.6-.8-2.5-2.2-2.5-1.3 0-2.3.9-2.3 2.5v5.7h-2.3v-10.1z"/></g><path fill="#fff" d="M59.4 87.7v-32.5h1.5v32.5h-1.5z"/></svg>