<?xml version="1.0" encoding="utf-8"?>
<!-- Generator: Adobe Illustrator 18.1.1, SVG Export Plug-In . SVG Version: 6.00 Build 0)  -->
<!DOCTYPE svg PUBLIC "-//W3C//DTD SVG 1.1//EN" "http://www.w3.org/Graphics/SVG/1.1/DTD/svg11.dtd">
<svg version="1.1" id="Layer_1" xmlns="http://www.w3.org/2000/svg" xmlns:xlink="http://www.w3.org/1999/xlink" x="0px" y="0px"
	 width="218.2px" height="38.3px" viewBox="1 53.7 218.2 38.3" enable-background="new 1 53.7 218.2 38.3" xml:space="preserve">
<path fill="#FFFFFF" d="M37.6,71.2L37.6,71.2c0,5.5,4,10.1,9.8,10.1v7c-5.3,0-9.9-2.2-13-5.7l2.2,5.2h-7.9L26,81H12.5l-2.6,6.7H2.1
	L5,81c7.5-3.4,16-6.2,25.1-8.4l0,0c0-0.3,0-0.7,0-1v-0.1c0-9.3,7.2-16.8,17.3-16.8v6.6C41.6,61.3,37.6,65.7,37.6,71.2z M29,70
	c-2.1,0.3-4.4,0.6-6.8,1l-2.9-7.6l-3.4,8.7c-2.6,0.5-5.2,1-7.8,1.6L16,55h6.6L29,70z"/>
<g>
	<path fill="#FFFFFF" d="M72,66.7l1.4-1.7c1.3,1.1,2.6,1.7,4.2,1.7c1.5,0,2.4-0.7,2.4-1.7l0,0c0-1-0.5-1.5-3-2
		c-2.8-0.7-4.5-1.5-4.5-4l0,0c0-2.3,1.9-3.9,4.6-3.9c2,0,3.5,0.6,4.9,1.7l-1.3,1.8c-1.2-0.9-2.4-1.4-3.6-1.4c-1.4,0-2.2,0.7-2.2,1.6
		l0,0c0,1,0.6,1.5,3.2,2.1c2.8,0.7,4.3,1.7,4.3,3.9l0,0c0,2.5-2,4-4.8,4C75.5,68.8,73.6,68.1,72,66.7z"/>
	<path fill="#FFFFFF" d="M84.2,63.6L84.2,63.6c0-2.9,2.2-5.3,5.2-5.3c1.9,0,3.1,0.7,4,1.7L92,61.5c-0.7-0.7-1.5-1.3-2.6-1.3
		c-1.7,0-2.9,1.5-2.9,3.2l0,0c0,1.8,1.2,3.2,3,3.2c1.1,0,1.9-0.5,2.6-1.3l1.4,1.4c-1,1.1-2.2,1.9-4.1,1.9
		C86.5,68.8,84.2,66.5,84.2,63.6z"/>
	<path fill="#FFFFFF" d="M95.6,54.7h2.3v5.4c0.6-1,1.6-1.8,3.2-1.8c2.3,0,3.6,1.5,3.6,3.9v6.4h-2.3v-5.7c0-1.6-0.8-2.5-2.2-2.5
		c-1.3,0-2.3,0.9-2.3,2.5v5.7h-2.3C95.6,68.6,95.6,54.7,95.6,54.7z"/>
	<path fill="#FFFFFF" d="M106.9,63.6L106.9,63.6c0-2.9,2.3-5.3,5.4-5.3s5.4,2.4,5.4,5.2l0,0c0,2.9-2.3,5.3-5.4,5.3
		C109.1,68.8,106.9,66.5,106.9,63.6z M115.3,63.6L115.3,63.6c0-1.8-1.3-3.3-3.1-3.3c-1.9,0-3,1.5-3,3.2l0,0c0,1.8,1.3,3.2,3.1,3.2
		C114.1,66.8,115.3,65.4,115.3,63.6z"/>
	<path fill="#FFFFFF" d="M119.4,63.6L119.4,63.6c0-2.9,2.3-5.3,5.4-5.3s5.4,2.4,5.4,5.2l0,0c0,2.9-2.3,5.3-5.4,5.3
		S119.4,66.5,119.4,63.6z M127.8,63.6L127.8,63.6c0-1.8-1.3-3.3-3.1-3.3c-1.9,0-3,1.5-3,3.2l0,0c0,1.8,1.3,3.2,3.1,3.2
		C126.7,66.8,127.8,65.4,127.8,63.6z"/>
	<path fill="#FFFFFF" d="M132.6,54.7h2.3v14h-2.3V54.7z"/>
	<path fill="#FFFFFF" d="M143.1,63.6L143.1,63.6c0-2.9,2.3-5.3,5.4-5.3c3.1,0,5.4,2.4,5.4,5.2l0,0c0,2.9-2.3,5.3-5.4,5.3
		C145.4,68.8,143.1,66.5,143.1,63.6z M151.5,63.6L151.5,63.6c0-1.8-1.3-3.3-3.1-3.3c-1.9,0-3,1.5-3,3.2l0,0c0,1.8,1.3,3.2,3.1,3.2
		C150.3,66.8,151.5,65.4,151.5,63.6z"/>
	<path fill="#FFFFFF" d="M156.4,60.5h-1.3v-1.9h1.3v-0.7c0-1.1,0.3-2,0.8-2.5s1.3-0.8,2.3-0.8c0.8,0,1.4,0.1,1.9,0.3v2
		c-0.5-0.2-0.9-0.2-1.4-0.2c-0.9,0-1.3,0.5-1.3,1.5v0.6h2.7v1.9h-2.6v8.1h-2.3L156.4,60.5L156.4,60.5z"/>
	<path fill="#FFFFFF" d="M72.9,74.4h2.5l4.1,6.3l4.1-6.3H86v13.3h-2.4v-9.6l-4.2,6.3h-0.1l-4.2-6.3v9.6h-2.3L72.9,74.4L72.9,74.4z"
		/>
	<path fill="#FFFFFF" d="M88.7,82.7L88.7,82.7c0-2.9,2-5.3,4.9-5.3c3.2,0,4.8,2.5,4.8,5.4c0,0.2,0,0.4,0,0.7H91
		c0.2,1.6,1.4,2.6,2.9,2.6c1.1,0,1.9-0.4,2.7-1.2l1.4,1.2c-1,1.1-2.3,1.9-4.1,1.9C91,88,88.7,85.9,88.7,82.7z M96.2,82
		c-0.2-1.5-1-2.7-2.6-2.7c-1.4,0-2.4,1.1-2.6,2.7H96.2z"/>
	<path fill="#FFFFFF" d="M100.3,82.7L100.3,82.7c0-3.4,2.3-5.3,4.7-5.3c1.7,0,2.7,0.8,3.4,1.8v-5.4h2.3v14h-2.3v-1.7
		c-0.7,1.1-1.8,1.9-3.4,1.9C102.6,88,100.3,86.1,100.3,82.7z M108.5,82.7L108.5,82.7c0-2-1.4-3.3-2.9-3.3c-1.6,0-2.9,1.2-2.9,3.2
		l0,0c0,2,1.3,3.2,2.9,3.2C107.1,85.9,108.5,84.6,108.5,82.7z"/>
	<path fill="#FFFFFF" d="M113.6,73.9h2.5v2.2h-2.5V73.9z M113.7,77.6h2.3v10.1h-2.3V77.6z"/>
	<path fill="#FFFFFF" d="M125.1,87.7v-1.2c-0.7,0.8-1.7,1.5-3.3,1.5c-1.9,0-3.6-1.1-3.6-3.1l0,0c0-2.2,1.7-3.3,4.1-3.3
		c1.2,0,2,0.2,2.8,0.4v-0.3c0-1.4-0.9-2.2-2.5-2.2c-1.1,0-2,0.2-2.9,0.6l-0.6-1.9c1.1-0.5,2.2-0.8,3.8-0.8c3,0,4.4,1.6,4.4,4.3v6
		H125.1z M125.2,83.5c-0.6-0.2-1.4-0.4-2.3-0.4c-1.5,0-2.3,0.6-2.3,1.6l0,0c0,1,0.9,1.5,2,1.5c1.5,0,2.7-0.9,2.7-2.1L125.2,83.5
		L125.2,83.5z"/>
	<path fill="#FFFFFF" d="M143.7,86.2c-1.1,1.1-2.5,1.7-4.1,1.7c-2.5,0-4.4-1.5-4.4-3.8l0,0c0-1.7,1-3,2.8-3.7
		c-0.8-1-1.1-1.8-1.1-2.8l0,0c0-1.8,1.5-3.4,3.8-3.4c2.1,0,3.6,1.4,3.6,3.2l0,0c0,1.8-1.2,2.8-2.9,3.5l2.3,2.3
		c0.5-0.8,1-1.6,1.4-2.6l1.8,0.9c-0.5,1.1-1.1,2.1-1.8,3.1l2.1,2.1l-1.7,1.2L143.7,86.2z M142.3,84.8l-3-3c-1.2,0.5-1.8,1.4-1.8,2.2
		l0,0c0,1.1,0.9,2,2.2,2C140.7,86,141.6,85.5,142.3,84.8z M142.3,77.5L142.3,77.5c0-0.9-0.6-1.5-1.5-1.5c-1,0-1.6,0.7-1.6,1.6l0,0
		c0,0.7,0.3,1.2,1,2C141.5,79.1,142.3,78.5,142.3,77.5z"/>
	<path fill="#FFFFFF" d="M155.2,74.4h5c4.2,0,7.1,2.9,7.1,6.7l0,0c0,3.8-2.9,6.7-7.1,6.7h-5V74.4z M160.2,85.6
		c2.8,0,4.6-1.9,4.6-4.5l0,0c0-2.6-1.8-4.5-4.6-4.5h-2.6v9.1L160.2,85.6L160.2,85.6z"/>
	<path fill="#FFFFFF" d="M169.4,82.7L169.4,82.7c0-2.9,2-5.3,4.9-5.3c3.2,0,4.8,2.5,4.8,5.4c0,0.2,0,0.4,0,0.7h-7.4
		c0.2,1.6,1.4,2.6,2.9,2.6c1.1,0,1.9-0.4,2.7-1.2l1.4,1.2c-1,1.1-2.3,1.9-4.1,1.9C171.6,88,169.4,85.9,169.4,82.7z M176.8,82
		c-0.2-1.5-1-2.7-2.6-2.7c-1.4,0-2.4,1.1-2.6,2.7H176.8z"/>
	<path fill="#FFFFFF" d="M180.6,86.4l1-1.6c1.1,0.8,2.3,1.2,3.3,1.2s1.6-0.4,1.6-1.1l0,0c0-0.8-1.1-1.1-2.3-1.4
		c-1.5-0.4-3.2-1-3.2-3l0,0c0-1.9,1.6-3.1,3.6-3.1c1.3,0,2.6,0.4,3.7,1.1l-0.9,1.6c-1-0.6-2-1-2.8-1c-0.9,0-1.4,0.4-1.4,1l0,0
		c0,0.7,1.1,1,2.3,1.4c1.5,0.5,3.1,1.1,3.1,2.9l0,0c0,2.1-1.6,3.2-3.7,3.2C183.4,87.9,181.8,87.4,180.6,86.4z"/>
	<path fill="#FFFFFF" d="M190.9,73.9h2.5v2.2h-2.5V73.9z M191,77.6h2.3v10.1H191V77.6z"/>
	<path fill="#FFFFFF" d="M196.1,89.6l0.9-1.7c1.1,0.7,2.2,1.1,3.6,1.1c2.1,0,3.2-1.1,3.2-3.1v-0.8c-0.8,1.1-1.9,1.9-3.6,1.9
		c-2.4,0-4.6-1.8-4.6-4.7l0,0c0-3,2.2-4.7,4.6-4.7c1.7,0,2.8,0.8,3.5,1.7v-1.5h2.3v8c0,1.7-0.4,3-1.3,3.8c-0.9,0.9-2.3,1.4-4.1,1.4
		C199,90.8,197.4,90.4,196.1,89.6z M203.8,82.2L203.8,82.2c0-1.7-1.4-2.8-3-2.8s-2.9,1.1-2.9,2.8l0,0c0,1.7,1.3,2.8,2.9,2.8
		S203.8,83.8,203.8,82.2z"/>
	<path fill="#FFFFFF" d="M209,77.6h2.3v1.6c0.6-1,1.6-1.8,3.2-1.8c2.3,0,3.6,1.5,3.6,3.9v6.4h-2.3V82c0-1.6-0.8-2.5-2.2-2.5
		c-1.3,0-2.3,0.9-2.3,2.5v5.7H209V77.6z"/>
</g>
<path fill="#FFFFFF" d="M59.4,87.7L59.4,87.7V55.2h1.5v32.5H59.4L59.4,87.7z"/>
</svg>
