<?xml version="1.0" encoding="utf-8"?>
<!-- Generator: Adobe Illustrator 18.1.1, SVG Export Plug-In . SVG Version: 6.00 Build 0)  -->
<!DOCTYPE svg PUBLIC "-//W3C//DTD SVG 1.1//EN" "http://www.w3.org/Graphics/SVG/1.1/DTD/svg11.dtd">
<svg version="1.1" id="Layer_1" xmlns="http://www.w3.org/2000/svg" xmlns:xlink="http://www.w3.org/1999/xlink" x="0px" y="0px"
	 width="772px" height="772px" viewBox="278 -314 772 772" enable-background="new 278 -314 772 772" xml:space="preserve">
<rect x="278" y="-314" fill="#FFF45F" width="772" height="772"/>
<g id="_x35_151e0c8492e5103c096af88a50059a5">
	<path fill="#FFFFFF" d="M474.1-183.5h379.8c36.1,0,65.6,29.5,65.6,65.6v379.8c0,36.1-29.5,65.6-65.6,65.6H474.1
		c-36.1,0-65.6-29.5-65.6-65.6v-379.8C408.5-154,438-183.5,474.1-183.5L474.1-183.5z M780.7-126.7c-12.6,0-23,10.4-23,23v55.1
		c0,12.6,10.4,23,23,23h57.8c12.7,0,23-10.4,23-23v-55.1c0-12.7-10.4-23-23-23H780.7L780.7-126.7z M861.7,32.6h-45
		c4.3,13.9,6.5,28.6,6.5,43.9c0,85-71.1,153.9-158.8,153.9S505.6,161.5,505.6,76.5c0-15.2,2.3-30,6.6-43.9h-46.9v215.9
		c0,11.2,9.1,20.3,20.3,20.3h355.8c11.2,0,20.3-9.1,20.3-20.3V32.6L861.7,32.6z M664.5-28.6c-56.7,0-102.6,44.5-102.6,99.4
		s45.9,99.4,102.6,99.4s102.6-44.5,102.6-99.4S721.2-28.6,664.5-28.6z"/>
</g>
</svg>
