<svg xmlns="http://www.w3.org/2000/svg" width="195.9" height="150.6" viewBox="0 0 195.9 150.6"><g><path fill="#fff" d="M83.6 147.1v3.8h-13.8l7-7.6c1-1.1 2-2.6 2-4.2 0-1.1-.8-2.2-2-2.2s-1.9.9-1.9 2.1c0 .2 0 .5.1.7h-4.9c.1-3.9 2.6-6.6 6.7-6.6 3.6 0 6.6 2.4 6.6 6.1 0 2.5-1 3.9-2.8 5.5l-2.7 2.5h5.7zM99.9 141.9c0 4.3-2.1 8.9-7 8.9s-7-4.6-7-8.9c0-4.3 2.1-8.9 7-8.9s7 4.6 7 8.9zm-9.8 0c0 1.6.5 5.2 2.7 5.2s2.7-3.6 2.7-5.2-.5-5.1-2.7-5.1-2.7 3.5-2.7 5.1zM101.6 137.2v-3.8h6.9v17.2h-4.5v-13.4h-2.4zM117.6 137l-.3 1.9 1.4-.1c3.4-.3 5.9 2.5 5.9 5.9 0 1.7-.8 3.4-2.1 4.5s-3.2 1.4-4.8 1.4c-1.9 0-3.8-.5-5.4-1.5l.6-4.1c1.3 1.1 2.9 1.9 4.6 1.9 1.4 0 2.6-1 2.6-2.4 0-2-1.9-2.8-3.6-2.8-1.1 0-2.2.2-3.2.7l1.4-9h8.6v3.6h-5.7z"/><path stroke="#fff" stroke-width="1.279" stroke-miterlimit="10" fill="none" d="M131.3 142h64.6M.6 142h64.5"/></g><g><path fill="#fff" d="M195.3 61.1l-12.4 12.4c-6.9 6.9-18.1 6.9-25 0l-23.7-23.7-11.3 11.3-12.7 12.7-12.3 12.3-24.9-25-11.3-11.3-23.7 23.8c-6.9 6.9-18.1 6.9-25 0l-12.4-12.5 36.2-36.2 24.9-24.9 36.3 36.2 11.3-11.3 24.9-24.9 24.9 24.9 36.2 36.2z"/><g fill="#fff"><path d="M3.8 97.4h5.8l4.6 12.1 4.9-12.1h5.9l3.4 22.7h-5.9l-1.7-13h-.1l-5.4 13h-2.3l-5.2-13-1.9 13h-5.9l3.8-22.7zM57.8 97.4v12.7c0 2.9-.1 5.8-2.4 8-1.9 1.9-4.9 2.5-7.5 2.5-2.6 0-5.6-.7-7.5-2.5-2.3-2.2-2.4-5.1-2.4-8v-12.7h5.9v11.9c0 2.9.2 6.2 4 6.2s4-3.2 4-6.2v-11.9h5.9zM74.6 115.1h7.1v5h-13v-22.7h5.9v17.7zM98.2 120.1h-5.9v-17.7h-4.9v-5h15.6v5h-4.9v17.7zM118.3 120.1h-5.9v-22.7h5.9v22.7zM129.4 97.4h9c4.9 0 8.2 2.3 8.2 7.5 0 5.4-2.9 7.7-8 7.7h-3.3v7.5h-5.9v-22.7zm5.8 10.4h1c2.1 0 4.2 0 4.2-2.8 0-2.9-2-2.9-4.2-2.9h-1v5.7zM162.3 115.1h7.1v5h-13v-22.7h5.9v17.7zM173.3 97.4h7.1l4.2 6.2 4.2-6.2h7.1l-8.4 11.8v10.9h-5.9v-10.9l-8.3-11.8z"/></g></g></svg>