<?xml version="1.0" encoding="utf-8"?>
<!-- Generator: Adobe Illustrator 18.1.1, SVG Export Plug-In . SVG Version: 6.00 Build 0)  -->
<!DOCTYPE svg PUBLIC "-//W3C//DTD SVG 1.1//EN" "http://www.w3.org/Graphics/SVG/1.1/DTD/svg11.dtd">
<svg version="1.1" xmlns="http://www.w3.org/2000/svg" xmlns:xlink="http://www.w3.org/1999/xlink" x="0px" y="0px" width="195.9px"
	 height="150.6px" viewBox="0 0 195.9 150.6" enable-background="new 0 0 195.9 150.6" xml:space="preserve">
<g id="Multiply-2015">
	<g>
		<g>
			<path fill="#FFFFFF" d="M83.6,147.1v3.8H69.8l7-7.6c1-1.1,2-2.6,2-4.2c0-1.1-0.8-2.2-2-2.2c-1.2,0-1.9,0.9-1.9,2.1
				c0,0.2,0,0.5,0.1,0.7h-4.9c0.1-3.9,2.6-6.6,6.7-6.6c3.6,0,6.6,2.4,6.6,6.1c0,2.5-1,3.9-2.8,5.5l-2.7,2.5H83.6z"/>
		</g>
		<g>
			<path fill="#FFFFFF" d="M99.9,141.9c0,4.3-2.1,8.9-7,8.9c-4.9,0-7-4.6-7-8.9c0-4.3,2.1-8.9,7-8.9S99.9,137.6,99.9,141.9z
				 M90.1,141.9c0,1.6,0.5,5.2,2.7,5.2s2.7-3.6,2.7-5.2s-0.5-5.1-2.7-5.1S90.1,140.3,90.1,141.9z"/>
		</g>
		<g>
			<path fill="#FFFFFF" d="M101.6,137.2v-3.8h6.9v17.2h-4.5v-13.4H101.6z"/>
		</g>
		<g>
			<path fill="#FFFFFF" d="M117.6,137l-0.3,1.9l1.4-0.1c3.4-0.3,5.9,2.5,5.9,5.9c0,1.7-0.8,3.4-2.1,4.5c-1.3,1.1-3.2,1.4-4.8,1.4
				c-1.9,0-3.8-0.5-5.4-1.5l0.6-4.1c1.3,1.1,2.9,1.9,4.6,1.9c1.4,0,2.6-1,2.6-2.4c0-2-1.9-2.8-3.6-2.8c-1.1,0-2.2,0.2-3.2,0.7l1.4-9
				h8.6v3.6H117.6z"/>
		</g>
	</g>
	<line fill="none" stroke="#FFFFFF" stroke-width="1.2792" stroke-miterlimit="10" x1="131.3" y1="142" x2="195.9" y2="142"/>
	<line fill="none" stroke="#FFFFFF" stroke-width="1.2792" stroke-miterlimit="10" x1="0.6" y1="142" x2="65.1" y2="142"/>
</g>
<g id="Multiply">
	<g>
		<g>
			<path fill="#FFFFFF" d="M195.3,61.1l-12.4,12.4c-6.9,6.9-18.1,6.9-25,0l-23.7-23.7l-11.3,11.3l-12.7,12.7L97.9,86.1L73,61.1l0,0
				L61.7,49.8L38,73.6c-6.9,6.9-18.1,6.9-25,0L0.6,61.1l36.2-36.2L61.7,0L98,36.2l11.3-11.3L134.2,0l24.9,24.9L195.3,61.1z"/>
		</g>
		<g>
			<path fill="#FFFFFF" d="M3.8,97.4h5.8l4.6,12.1l4.9-12.1H25l3.4,22.7h-5.9l-1.7-13h-0.1l-5.4,13H13l-5.2-13H7.8l-1.9,13H0
				L3.8,97.4z"/>
			<path fill="#FFFFFF" d="M57.8,97.4v12.7c0,2.9-0.1,5.8-2.4,8c-1.9,1.9-4.9,2.5-7.5,2.5c-2.6,0-5.6-0.7-7.5-2.5
				c-2.3-2.2-2.4-5.1-2.4-8V97.4h5.9v11.9c0,2.9,0.2,6.2,4,6.2c3.8,0,4-3.2,4-6.2V97.4H57.8z"/>
			<path fill="#FFFFFF" d="M74.6,115.1h7.1v5h-13V97.4h5.9V115.1z"/>
			<path fill="#FFFFFF" d="M98.2,120.1h-5.9v-17.7h-4.9v-5h15.6v5h-4.9V120.1z"/>
			<path fill="#FFFFFF" d="M118.3,120.1h-5.9V97.4h5.9V120.1z"/>
			<path fill="#FFFFFF" d="M129.4,97.4h9c4.9,0,8.2,2.3,8.2,7.5c0,5.4-2.9,7.7-8,7.7h-3.3v7.5h-5.9V97.4z M135.2,107.8h1
				c2.1,0,4.2,0,4.2-2.8c0-2.9-2-2.9-4.2-2.9h-1V107.8z"/>
			<path fill="#FFFFFF" d="M162.3,115.1h7.1v5h-13V97.4h5.9V115.1z"/>
			<path fill="#FFFFFF" d="M173.3,97.4h7.1l4.2,6.2l4.2-6.2h7.1l-8.4,11.8v10.9h-5.9v-10.9L173.3,97.4z"/>
		</g>
	</g>
</g>
</svg>
