<?xml version="1.0" encoding="utf-8"?>
<!-- Generator: Adobe Illustrator 18.1.1, SVG Export Plug-In . SVG Version: 6.00 Build 0)  -->
<!DOCTYPE svg PUBLIC "-//W3C//DTD SVG 1.1//EN" "http://www.w3.org/Graphics/SVG/1.1/DTD/svg11.dtd">
<svg version="1.1" id="Layer_1" xmlns="http://www.w3.org/2000/svg" xmlns:xlink="http://www.w3.org/1999/xlink" x="0px" y="0px"
	 width="306.8px" height="204.5px" viewBox="12.6 -72.6 306.8 204.5" enable-background="new 12.6 -72.6 306.8 204.5"
	 xml:space="preserve">
<g>
	<path fill="#231F20" d="M151.6,101.5v3.8h-13.8l7-7.6c1-1.1,2-2.6,2-4.2c0-1.1-0.8-2.2-2-2.2s-1.9,0.9-1.9,2.1c0,0.2,0,0.5,0.1,0.7
		h-4.9c0.1-3.9,2.6-6.6,6.7-6.6c3.6,0,6.6,2.4,6.6,6.1c0,2.5-1,3.9-2.8,5.5l-2.7,2.5h5.7L151.6,101.5z M167.9,96.3
		c0,4.3-2.1,8.9-7,8.9c-4.9,0-7-4.6-7-8.9c0-4.3,2.1-8.9,7-8.9C165.8,87.4,167.9,92,167.9,96.3z M158.1,96.3c0,1.6,0.5,5.2,2.7,5.2
		s2.7-3.6,2.7-5.2s-0.5-5.1-2.7-5.1S158.1,94.7,158.1,96.3z M169.6,91.6v-3.8h6.9V105H172V91.6H169.6z M185.6,91.4l-0.3,1.9l1.4-0.1
		c3.4-0.3,5.9,2.5,5.9,5.9c0,1.7-0.8,3.4-2.1,4.5c-1.3,1.1-3.2,1.4-4.8,1.4c-1.9,0-3.8-0.5-5.4-1.5l0.6-4.1c1.3,1.1,2.9,1.9,4.6,1.9
		c1.4,0,2.6-1,2.6-2.4c0-2-1.9-2.8-3.6-2.8c-1.1,0-2.2,0.2-3.2,0.7l1.4-9h8.6v3.6L185.6,91.4L185.6,91.4z"/>
	<path fill="none" stroke="#000000" stroke-width="1.279" stroke-miterlimit="10" d="M199.3,96.4h64.6 M68.6,96.4h64.5"/>
</g>
<g>
	<path fill="#231F20" d="M263.3,15.5l-12.4,12.4c-6.9,6.9-18.1,6.9-25,0L202.2,4.2l-11.3,11.3l-12.7,12.7l-12.3,12.3l-24.9-25
		L129.7,4.2L106,28c-6.9,6.9-18.1,6.9-25,0L68.6,15.5l36.2-36.2l24.9-24.9L166-9.4l11.3-11.3l24.9-24.9l24.9,24.9L263.3,15.5z"/>
	<g>
		<path fill="#231F20" d="M71.8,51.8h5.8l4.6,12.1l4.9-12.1H93l3.4,22.7h-5.9l-1.7-13h-0.1l-5.4,13H81l-5.2-13l-1.9,13H68
			C68,74.5,71.8,51.8,71.8,51.8z M125.8,51.8v12.7c0,2.9-0.1,5.8-2.4,8c-1.9,1.9-4.9,2.5-7.5,2.5s-5.6-0.7-7.5-2.5
			c-2.3-2.2-2.4-5.1-2.4-8V51.8h5.9v11.9c0,2.9,0.2,6.2,4,6.2c3.8,0,4-3.2,4-6.2V51.8H125.8z M142.6,69.5h7.1v5h-13V51.8h5.9
			C142.6,51.8,142.6,69.5,142.6,69.5z M166.2,74.5h-5.9V56.8h-4.9v-5H171v5h-4.9v17.7L166.2,74.5z M186.3,74.5h-5.9V51.8h5.9
			C186.3,51.8,186.3,74.5,186.3,74.5z M197.4,51.8h9c4.9,0,8.2,2.3,8.2,7.5c0,5.4-2.9,7.7-8,7.7h-3.3v7.5h-5.9
			C197.4,74.5,197.4,51.8,197.4,51.8z M203.2,62.2h1c2.1,0,4.2,0,4.2-2.8c0-2.9-2-2.9-4.2-2.9h-1C203.2,56.5,203.2,62.2,203.2,62.2z
			 M230.3,69.5h7.1v5h-13V51.8h5.9C230.3,51.8,230.3,69.5,230.3,69.5z M241.3,51.8h7.1l4.2,6.2l4.2-6.2h7.1l-8.4,11.8v10.9h-5.9
			V63.6L241.3,51.8L241.3,51.8z"/>
	</g>
</g>
</svg>
