<?xml version="1.0" encoding="utf-8"?>
<!-- Generator: Adobe Illustrator 18.1.1, SVG Export Plug-In . SVG Version: 6.00 Build 0)  -->
<!DOCTYPE svg PUBLIC "-//W3C//DTD SVG 1.1//EN" "http://www.w3.org/Graphics/SVG/1.1/DTD/svg11.dtd">
<svg version="1.1" id="Layer_1" xmlns="http://www.w3.org/2000/svg" xmlns:xlink="http://www.w3.org/1999/xlink" x="0px" y="0px"
	 width="1200px" height="37.1px" viewBox="2956 11.1 1200 37.1" enable-background="new 2956 11.1 1200 37.1" xml:space="preserve">
<g>
	<g>
		<g>
			<path fill="#EC008B" d="M3597.9,37.4l-5.4,5.4c-3,3-7.8,3-10.7,0l-10.2-10.2l-4.9,4.9l-5.5,5.5l-5.3,5.2l-10.7-10.7l0,0l-4.9-4.9
				l-10.2,10.2c-3,3-7.8,3-10.7,0l-5.4-5.4l15.6-15.6l10.7-10.7l15.6,15.6l4.9-4.9l10.7-10.7l10.7,10.7L3597.9,37.4z"/>
		</g>
	</g>
</g>
<g>
	<rect x="3614.9" y="26.6" fill="#EC008B" width="541.1" height="6"/>
</g>
<g>
	<rect x="2956" y="26.6" fill="#EC008B" width="541.1" height="6"/>
</g>
</svg>
