<?xml version="1.0" encoding="utf-8"?>
<!-- Generator: Adobe Illustrator 18.1.1, SVG Export Plug-In . SVG Version: 6.00 Build 0)  -->
<!DOCTYPE svg PUBLIC "-//W3C//DTD SVG 1.1//EN" "http://www.w3.org/Graphics/SVG/1.1/DTD/svg11.dtd">
<svg version="1.1" id="Layer_1" xmlns="http://www.w3.org/2000/svg" xmlns:xlink="http://www.w3.org/1999/xlink" x="0px" y="0px"
	 width="3586px" height="110.8px" viewBox="-1667 17.2 3586 110.8" enable-background="new -1667 17.2 3586 110.8"
	 xml:space="preserve">
<g>
	<g>
		<path fill="#939598" d="M251.3,95.9l-16,16c-8.9,8.9-23.3,8.9-32.1,0l-30.5-30.5L158.2,96l-16.4,16.4L126,128L93.9,95.9l0,0
			L79.4,81.3l-30.6,30.6c-8.9,8.9-23.3,8.9-32.1,0l-16-16l46.6-46.6l32.1-32.1L126,63.8l14.5-14.6l32.1-32l32,32.1L251.3,95.9z"/>
	</g>
</g>
<line fill="none" stroke="#939598" stroke-width="3" stroke-miterlimit="10" x1="302" y1="72.6" x2="1919" y2="72.6"/>
<line fill="none" stroke="#939598" stroke-width="3" stroke-miterlimit="10" x1="-1667" y1="72.6" x2="-50" y2="72.6"/>
</svg>
