<?xml version="1.0" encoding="utf-8"?>
<!-- Generator: Adobe Illustrator 18.1.1, SVG Export Plug-In . SVG Version: 6.00 Build 0)  -->
<!DOCTYPE svg PUBLIC "-//W3C//DTD SVG 1.1//EN" "http://www.w3.org/Graphics/SVG/1.1/DTD/svg11.dtd">
<svg version="1.1" id="Layer_1" xmlns="http://www.w3.org/2000/svg" xmlns:xlink="http://www.w3.org/1999/xlink" x="0px" y="0px"
	 width="772px" height="772px" viewBox="278 -314 772 772" enable-background="new 278 -314 772 772" xml:space="preserve">
<rect x="278" y="-314" fill="#00BDF2" width="772" height="772"/>
<g id="Twitter">
	<path fill="#FFFFFF" d="M900.8-82c-17.4,8.2-36.1,13.7-55.8,16.1c20-12.6,35.4-32.6,42.6-56.3c-18.8,11.6-39.5,20-61.6,24.7
		c-17.9-19.8-43-32.3-71.1-32.3c-53.7,0-97.2,45.6-97.2,101.9c0,7.9,0.9,15.8,2.6,23.2c-80.9-4.2-152.5-44.7-200.4-106.5
		c-8.2,15.2-13,32.7-13,51.3c0,35.4,17.2,66.5,43.2,84.9c-16-0.5-30.9-5.3-44-12.8v1.2c0,49.3,33.5,90.5,78.1,99.8
		c-8.2,2.5-16.8,3.7-25.6,3.7c-6.3,0-12.5-0.7-18.2-1.9c12.3,40.5,48.2,70,90.7,70.9c-33.3,27.2-75.1,43.5-120.7,43.5
		c-7.9,0-15.6-0.5-23.2-1.4c43,28.9,94,45.8,149,45.8c178.8,0,276.5-155.3,276.5-289.9c0-4.4,0-8.8-0.4-13.2
		C871.3-43.6,887.8-61.4,900.8-82z"/>
</g>
</svg>
