<svg xmlns="http://www.w3.org/2000/svg" width="772" height="772" viewBox="278 -314 772 772" enable-background="new 278 -314 772 772"><path fill="#00BDF2" d="M278-314h772v772h-772z"/><path fill="#fff" d="M900.8-82c-17.4 8.2-36.1 13.7-55.8 16.1 20-12.6 35.4-32.6 42.6-56.3-18.8 11.6-39.5 20-61.6 24.7-17.9-19.8-43-32.3-71.1-32.3-53.7 0-97.2 45.6-97.2 101.9 0 7.9.9 15.8 2.6 23.2-80.9-4.2-152.5-44.7-200.4-106.5-8.2 15.2-13 32.7-13 51.3 0 35.4 17.2 66.5 43.2 84.9-16-.5-30.9-5.3-44-12.8v1.2c0 49.3 33.5 90.5 78.1 99.8-8.2 2.5-16.8 3.7-25.6 3.7-6.3 0-12.5-.7-18.2-1.9 12.3 40.5 48.2 70 90.7 70.9-33.3 27.2-75.1 43.5-120.7 43.5-7.9 0-15.6-.5-23.2-1.4 43 28.9 94 45.8 149 45.8 178.8 0 276.5-155.3 276.5-289.9 0-4.4 0-8.8-.4-13.2 19-14.3 35.5-32.1 48.5-52.7z"/></svg>